<svg id="lock_black_24dp" xmlns="http://www.w3.org/2000/svg" width="16.153" height="16.153" viewBox="0 0 16.153 16.153">
  <g id="Groupe_6168" data-name="Groupe 6168">
    <path id="Tracé_14220" data-name="Tracé 14220" d="M0,0H16.153V16.153H0Z" fill="none"/>
    <path id="Tracé_14221" data-name="Tracé 14221" d="M0,0H16.153V16.153H0Z" fill="none" opacity="0.87"/>
  </g>
  <path id="Tracé_14222" data-name="Tracé 14222" d="M13.422,5.711h-.673V4.365a3.365,3.365,0,0,0-6.73,0V5.711H5.346A1.35,1.35,0,0,0,4,7.057v6.73a1.35,1.35,0,0,0,1.346,1.346h8.076a1.35,1.35,0,0,0,1.346-1.346V7.057A1.35,1.35,0,0,0,13.422,5.711ZM9.384,11.769a1.346,1.346,0,1,1,1.346-1.346A1.35,1.35,0,0,1,9.384,11.769ZM7.365,5.711V4.365a2.019,2.019,0,0,1,4.038,0V5.711Z" transform="translate(-1.308 -0.327)" fill="#02130e"/>
</svg>
